# xmcd
#
# Track frame offsets:
#	150
#	22913
#	47516
#	69342
#	89278
#	111322
#	136313
#	159527
#	178166
#	206971
#	232042
#	252803
#
# Disc length: 3656 seconds
#
# Revision: 196610
# Processed by: cddbd v1.5.2PL0 Copyright (c) Steve Scherf et al.
# Submitted via: EZCDAudioConverter 8.0.2.1
#
DISCID=a20e460c
DTITLE=Quang Lê - Đập Vỡ Cây Đàn
DYEAR=2007
DGENRE=Miscellaneous
TTITLE0=Quang Lê - Đập Vỡ Cây Đàn
TTITLE1=Quang Lê - Đừng nhắc chuyện lòng
TTITLE2=Quang Lê - Chuyện ba mùa mưa
TTITLE3=Quang Lê, Minh Tuyết - Bài ca kỷ niệm
TTITLE4=Quang Lê, Quỳnh Dung - Đau xót lý con cua
TTITLE5=Quang Lê - Tân cổ. Lỡ hẹn
TTITLE6=Quang Lê - Tình em xứ Quảng
TTITLE7=Quang Lê, Hương Thủy - Chuyện tình nơi làng quê
TTITLE8=Quang Lê - Nhật ký của hai đứa mình
TTITLE9=Quang Lê - Cánh thư bằng hữu
TTITLE10=Quang Lê - Tiễn bạn lên đường
TTITLE11=Quang Lê - Tình em là đại dương
EXTD=
EXTT0=
EXTT1=
EXTT2=
EXTT3=
EXTT4=
EXTT5=
EXTT6=
EXTT7=
EXTT8=
EXTT9=
EXTT10=
EXTT11=
PLAYORDER=
